<svg width="20" height="20" viewBox="0 0 20 20" fill="none" xmlns="http://www.w3.org/2000/svg">
<path fill-rule="evenodd" clip-rule="evenodd" d="M7.66667 5.83333C7.66667 4.54467 8.71134 3.5 10 3.5C11.2887 3.5 12.3333 4.54467 12.3333 5.83333C12.3333 7.122 11.2887 8.16667 10 8.16667C8.71134 8.16667 7.66667 7.122 7.66667 5.83333ZM10 1.5C7.60677 1.5 5.66667 3.4401 5.66667 5.83333C5.66667 8.22657 7.60677 10.1667 10 10.1667C12.3932 10.1667 14.3333 8.22657 14.3333 5.83333C14.3333 3.4401 12.3932 1.5 10 1.5ZM6.66667 11.5C5.5174 11.5 4.4152 11.9565 3.60254 12.7692C2.78988 13.5819 2.33334 14.6841 2.33334 15.8333V17.5C2.33334 18.0523 2.78105 18.5 3.33334 18.5C3.88562 18.5 4.33334 18.0523 4.33334 17.5V15.8333C4.33334 15.2145 4.57917 14.621 5.01675 14.1834C5.45434 13.7458 6.04783 13.5 6.66667 13.5H13.3333C13.9522 13.5 14.5457 13.7458 14.9832 14.1834C15.4208 14.621 15.6667 15.2145 15.6667 15.8333V17.5C15.6667 18.0523 16.1144 18.5 16.6667 18.5C17.219 18.5 17.6667 18.0523 17.6667 17.5V15.8333C17.6667 14.6841 17.2101 13.5819 16.3975 12.7692C15.5848 11.9565 14.4826 11.5 13.3333 11.5H6.66667Z" fill="#37404F"/>
</svg>
