<svg width="24" height="24" viewBox="0 0 24 24" fill="none" xmlns="http://www.w3.org/2000/svg">
<path fill-rule="evenodd" clip-rule="evenodd" d="M16.6364 2.90909C16.6364 2.3568 16.1886 1.90909 15.6364 1.90909C15.0841 1.90909 14.6364 2.3568 14.6364 2.90909V3.72727H9.36363V2.90909C9.36363 2.3568 8.91592 1.90909 8.36363 1.90909C7.81135 1.90909 7.36363 2.3568 7.36363 2.90909V3.72727H5.63636C4.07992 3.72727 2.81818 4.98901 2.81818 6.54545V10.1818V19.2727C2.81818 20.8292 4.07992 22.0909 5.63636 22.0909H18.3636C19.9201 22.0909 21.1818 20.8292 21.1818 19.2727V10.1818V6.54545C21.1818 4.98901 19.9201 3.72727 18.3636 3.72727H16.6364V2.90909ZM19.1818 9.18182V6.54545C19.1818 6.09358 18.8155 5.72727 18.3636 5.72727H16.6364V6.54545C16.6364 7.09774 16.1886 7.54545 15.6364 7.54545C15.0841 7.54545 14.6364 7.09774 14.6364 6.54545V5.72727H9.36363V6.54545C9.36363 7.09774 8.91592 7.54545 8.36363 7.54545C7.81135 7.54545 7.36363 7.09774 7.36363 6.54545V5.72727H5.63636C5.18449 5.72727 4.81818 6.09358 4.81818 6.54545V9.18182H19.1818ZM4.81818 11.1818H19.1818V19.2727C19.1818 19.7246 18.8155 20.0909 18.3636 20.0909H5.63636C5.18449 20.0909 4.81818 19.7246 4.81818 19.2727V11.1818Z" fill="black"/>
</svg>
