<svg width="24" height="24" viewBox="0 0 24 24" fill="none" xmlns="http://www.w3.org/2000/svg">
<path fill-rule="evenodd" clip-rule="evenodd" d="M19.5 2.83333H4.5C3.11937 2.83333 2 3.9527 2 5.33333C2 6.71395 3.11937 7.83333 4.5 7.83333H19.5C20.8806 7.83333 22 6.71395 22 5.33333C22 3.9527 20.8806 2.83333 19.5 2.83333ZM19.5 6.16666H4.5C4.03979 6.16666 3.66667 5.79354 3.66667 5.33333C3.66667 4.87312 4.03979 4.49999 4.5 4.49999H19.5C19.9602 4.49999 20.3333 4.87312 20.3333 5.33333C20.3333 5.79354 19.9602 6.16666 19.5 6.16666ZM19.5 9.5H4.5C3.11937 9.5 2 10.6194 2 12C2 13.3806 3.11937 14.5 4.5 14.5H19.5C20.8806 14.5 22 13.3806 22 12C22 10.6194 20.8806 9.5 19.5 9.5ZM19.5 12.8333H4.5C4.03979 12.8333 3.66667 12.4602 3.66667 12C3.66667 11.5398 4.03979 11.1667 4.5 11.1667H19.5C19.9602 11.1667 20.3333 11.5398 20.3333 12C20.3333 12.4602 19.9602 12.8333 19.5 12.8333ZM4.5 16.1667H19.5C20.8806 16.1667 22 17.286 22 18.6667C22 20.0473 20.8806 21.1667 19.5 21.1667H4.5C3.11937 21.1667 2 20.0473 2 18.6667C2 17.286 3.11937 16.1667 4.5 16.1667ZM4.5 19.5H19.5C19.9602 19.5 20.3333 19.1269 20.3333 18.6667C20.3333 18.2065 19.9602 17.8333 19.5 17.8333H4.5C4.03979 17.8333 3.66667 18.2065 3.66667 18.6667C3.66667 19.1269 4.03979 19.5 4.5 19.5Z" fill="black"/>
</svg>
