<svg width="95" height="23" viewBox="0 0 95 23" fill="none" xmlns="http://www.w3.org/2000/svg">
<path fill-rule="evenodd" clip-rule="evenodd" d="M11.2418 15.5209C11.2418 16.9711 10.6821 18.1555 9.58712 19.0982C8.46781 20.0409 7.08084 20.5002 5.40188 20.5002C4.11224 20.5002 2.94427 20.2585 1.87363 19.7509C0.802982 19.2674 0.267661 18.5423 0.267661 17.5754C0.267661 16.6086 0.900313 15.8593 1.84929 15.8593C2.18995 15.8593 2.74961 16.0285 3.52826 16.3669C4.28257 16.7053 4.93956 16.8745 5.49921 16.8745C6.49686 16.8745 7.10518 16.3669 7.10518 15.5692C7.10518 14.1914 4.55023 13.4179 2.50628 12.2335C1.11931 11.4359 0 9.91306 0 7.88265C0 6.52904 0.510989 5.36881 1.53297 4.42612C2.55494 3.48343 3.91758 3 5.62088 3C8.05416 3 9.83045 3.77349 9.83045 5.24795C9.83045 6.21481 9.1248 6.9883 8.15149 6.9883C7.88383 6.9883 6.74018 6.62573 5.83987 6.62573C4.76923 6.62573 4.13658 7.10916 4.13658 7.88265C4.13658 10.6865 11.2418 10.0097 11.2418 15.5209ZM20.6156 14.5056L16.99 9.50214V18.639C16.99 19.63 16.1384 20.4518 15.0434 20.4518C13.9484 20.4518 13.0968 19.63 13.0968 18.639V5.22378C13.0968 3.96686 13.9971 3.04834 15.3841 3.04834C16.041 3.04834 16.552 3.19337 16.917 3.45926C17.282 3.74932 17.7687 4.30526 18.377 5.10292L22.2702 10.4207L25.9445 5.12709C26.6501 4.08772 26.8691 3.77349 27.5748 3.36257C27.9398 3.14503 28.3291 3.04834 28.7428 3.04834C30.0811 3.04834 30.9084 3.89435 30.9084 5.15127V18.639C30.9084 19.63 30.0567 20.4518 28.9618 20.4518C27.8668 20.4518 27.0151 19.63 27.0151 18.639V9.42963L23.3652 14.5056C23.0002 15.0133 22.5379 15.2791 22.0026 15.2791C21.4429 15.2791 20.9806 15.0133 20.6156 14.5056Z" fill="#3E4B64"/>
<path fill-rule="evenodd" clip-rule="evenodd" d="M53.8677 17.5886C53.8677 15.847 55.2051 14.9121 57.0932 14.9121C57.8996 14.9121 58.5683 15.0954 59.0993 15.4437V15.1871C59.0993 13.9221 58.647 13.3171 57.4472 13.3171C56.9556 13.3171 56.4835 13.3721 56.0705 13.5005C55.8542 13.5555 55.7165 13.5738 55.6182 13.5738C55.2641 13.5738 55.0085 13.4271 54.8511 13.1338C54.7921 13.0238 54.7724 12.9138 54.7724 12.7855C54.7724 12.4372 54.9888 12.1622 55.4215 11.9972C56.1492 11.7039 56.8966 11.5572 57.6833 11.5572C60.2007 11.5572 61.2234 12.7122 61.2234 14.9854V19.1836C61.2234 19.6785 60.7907 20.1185 60.2204 20.1185C59.65 20.1185 59.2567 19.7152 59.2567 19.1286C58.6863 19.7885 57.8209 20.1185 56.6409 20.1185C54.9888 20.1185 53.8677 19.1469 53.8677 17.5886ZM59.0993 17.5886V16.7453C58.7256 16.4703 58.1946 16.342 57.5456 16.342C56.7392 16.342 56.1295 16.7087 56.1295 17.3686C56.1295 17.9736 56.6605 18.3403 57.3882 18.3403C58.1553 18.3403 58.7256 18.0836 59.0993 17.5886ZM62.9542 18.5603C62.9542 18.3586 63.0132 18.1753 63.1509 18.0469C63.3475 17.827 63.5835 17.717 63.8589 17.717C64.0752 17.717 64.2916 17.7903 64.5079 17.9186C65.1176 18.2669 65.7863 18.4503 66.5534 18.4503C67.2417 18.4503 67.7137 18.1753 67.7137 17.6803C67.7137 17.1853 66.9664 16.9103 66.042 16.672C64.6653 16.342 62.9345 15.8654 62.9345 14.0688C62.9345 12.5105 64.2916 11.5572 66.1797 11.5572C67.2221 11.5572 68.1071 11.7589 68.8741 12.1805C69.1888 12.3638 69.3462 12.6022 69.3462 12.8955C69.3462 13.0421 69.3068 13.1888 69.2282 13.3171C69.0512 13.5921 68.7955 13.7388 68.4415 13.7388C68.2644 13.7388 68.0874 13.7021 67.9104 13.6288C67.3991 13.4271 66.868 13.3171 66.2977 13.3171C65.6487 13.3171 65.1963 13.6471 65.1963 14.0321C65.1963 14.8021 66.9074 14.9854 68.2841 15.4437C69.2282 15.7554 69.9755 16.4887 69.9755 17.5703C69.9755 19.1836 68.5791 20.2102 66.396 20.2102C65.157 20.2102 64.1342 19.8985 63.3279 19.2752C63.0722 19.0736 62.9542 18.8352 62.9542 18.5603ZM76.0135 18.1386C76.5838 18.1386 76.9182 18.5236 76.9182 18.9819C76.9182 19.3486 76.7215 19.6235 76.3085 19.8252C75.7971 20.0635 75.1678 20.1919 74.4401 20.1919C72.493 20.1919 71.6866 19.0736 71.6866 16.8737V10.4939C71.6866 9.9256 72.1783 9.46729 72.8273 9.46729C73.4567 9.46729 73.9484 9.9256 73.9484 10.4939V11.7589H75.6988C76.3085 11.7589 76.8002 12.2172 76.8002 12.7488C76.8002 13.2805 76.3085 13.7388 75.6988 13.7388H73.9484V16.7453C73.9484 17.7353 74.2827 18.2303 74.9711 18.2303C75.3448 18.2303 75.8561 18.1386 76.0135 18.1386ZM84.7656 15.1137V15.0771C84.7656 14.0504 83.9985 13.3171 82.7398 13.3171C81.4614 13.3171 80.6747 13.9221 80.419 15.1137H84.7656ZM86.1423 16.5253H80.4977C80.6747 17.7536 81.7368 18.4503 83.1528 18.4503C83.7625 18.4503 84.3132 18.3403 84.8049 18.1386C85.0213 18.0469 85.1786 18.0103 85.3163 18.0103C85.6113 18.0103 85.8473 18.1386 86.0243 18.3953C86.1227 18.5419 86.162 18.6702 86.162 18.7986C86.162 19.1102 86.0046 19.3486 85.7096 19.5135C84.8639 19.9719 83.9395 20.2102 82.9168 20.2102C81.4811 20.2102 80.3404 19.8069 79.475 19.0186C78.5899 18.2303 78.1573 17.1853 78.1573 15.8837C78.1573 14.6554 78.59 13.6105 79.4357 12.7855C80.2814 11.9605 81.4221 11.5572 82.8382 11.5572C83.9986 11.5572 85.0016 11.9055 85.808 12.6205C86.6143 13.3355 87.0274 14.2704 87.0274 15.3887V15.7737C86.9684 16.2687 86.6733 16.5253 86.1423 16.5253ZM89.7699 11.6305C90.3993 11.6305 90.8713 12.0338 90.8713 12.5472C91.4024 11.9055 92.0711 11.5755 92.8774 11.5755C93.4478 11.5755 94.0378 11.8872 94.0378 12.5288C94.0378 13.2438 93.5658 13.6105 92.6218 13.6105C92.5628 13.6105 92.3857 13.5921 92.3071 13.5921H92.1694C91.599 13.5921 91.1663 13.8854 90.8713 14.4721V19.1286C90.8713 19.6969 90.3796 20.1552 89.7503 20.1552C89.1012 20.1552 88.6096 19.6969 88.6096 19.1286V12.7855C88.6096 12.0705 89.0619 11.6305 89.7699 11.6305Z" fill="#00AAFF"/>
<path fill-rule="evenodd" clip-rule="evenodd" d="M41.3201 14.5056L37.6945 9.50214V18.639C37.6945 19.63 36.8429 20.4518 35.7479 20.4518C34.6529 20.4518 33.8013 19.63 33.8013 18.639V5.22378C33.8013 3.96686 34.7016 3.04834 36.0886 3.04834C36.7455 3.04834 37.2565 3.19337 37.6215 3.45926C37.9865 3.74931 38.4732 4.30526 39.0815 5.10292L42.9747 10.4207L46.649 5.12709C47.3546 4.08772 47.5736 3.77349 48.2793 3.36257C48.6443 3.14503 49.0336 3.04834 49.4473 3.04834C50.7856 3.04834 51.6129 3.89434 51.6129 5.15126V18.639C51.6129 19.63 50.7612 20.4518 49.6663 20.4518C48.5713 20.4518 47.7196 19.63 47.7196 18.639V9.42962L44.0697 14.5056C43.7047 15.0132 43.2424 15.2791 42.7071 15.2791C42.1474 15.2791 41.6851 15.0132 41.3201 14.5056Z" fill="#00AAFF"/>
</svg>
