<svg width="20" height="20" viewBox="0 0 20 20" fill="none" xmlns="http://www.w3.org/2000/svg">
<path fill-rule="evenodd" clip-rule="evenodd" d="M10 1.92896C10.5523 1.92895 11 2.37667 11 2.92896L11 9.00002L17.0711 9.00002C17.6234 9.00002 18.0711 9.44773 18.0711 10C18.0711 10.5523 17.6234 11 17.0711 11L11 11L11 17.0711C11 17.6234 10.5523 18.0711 10 18.0711C9.44773 18.0711 9.00002 17.6234 9.00002 17.0711L9.00003 11L2.92896 11C2.37667 11 1.92896 10.5523 1.92896 10C1.92895 9.44774 2.37667 9.00002 2.92896 9.00002L9.00003 9.00002L9.00002 2.92896C9.00002 2.37667 9.44774 1.92896 10 1.92896Z" fill="#9CA9BA"/>
</svg>
