<svg width="240" height="2" viewBox="0 0 240 2" fill="none" xmlns="http://www.w3.org/2000/svg">
<g clip-path="url(#clip0)">
<path d="M-8.06799 0.999979C-7.06199 0.0219795 -5.05099 0.0219795 -4.04599 0.999979C-3.03999 1.97798 -1.02899 1.97798 -0.0229931 0.999979C0.983007 0.0219795 2.99401 0.0219795 4.00001 0.999979C5.00601 1.97798 7.01701 1.97798 8.02301 0.999979C9.02901 0.0219795 11.04 0.0219795 12.045 0.999979C13.051 1.97798 15.062 1.97798 16.068 0.999979M-0.0679932 0.999979C0.938007 0.0219795 2.94901 0.0219795 3.95401 0.999979C4.96001 1.97798 6.97101 1.97798 7.97701 0.999979C8.98301 0.0219795 10.994 0.0219795 12 0.999979C13.006 1.97798 15.017 1.97798 16.023 0.999979C17.029 0.0219795 19.04 0.0219795 20.045 0.999979C21.051 1.97798 23.062 1.97798 24.068 0.999979M7.93201 0.999979C8.93801 0.0219795 10.949 0.0219795 11.954 0.999979C12.96 1.97798 14.971 1.97798 15.977 0.999979C16.983 0.0219795 18.994 0.0219795 20 0.999979C21.006 1.97798 23.017 1.97798 24.023 0.999979C25.029 0.0219795 27.04 0.0219795 28.045 0.999979C29.051 1.97798 31.062 1.97798 32.068 0.999979M15.932 0.999979C16.938 0.0219795 18.949 0.0219795 19.954 0.999979C20.96 1.97798 22.971 1.97798 23.977 0.999979C24.983 0.0219795 26.994 0.0219795 28 0.999979C29.006 1.97798 31.017 1.97798 32.023 0.999979C33.029 0.0219795 35.04 0.0219795 36.045 0.999979C37.051 1.97798 39.062 1.97798 40.068 0.999979M23.932 0.999979C24.938 0.0219795 26.949 0.0219795 27.954 0.999979C28.96 1.97798 30.971 1.97798 31.977 0.999979C32.983 0.0219795 34.994 0.0219795 36 0.999979C37.006 1.97798 39.017 1.97798 40.023 0.999979C41.029 0.0219795 43.04 0.0219795 44.045 0.999979C45.051 1.97798 47.062 1.97798 48.068 0.999979M31.932 0.999979C32.938 0.0219795 34.949 0.0219795 35.954 0.999979C36.96 1.97798 38.971 1.97798 39.977 0.999979C40.983 0.0219795 42.994 0.0219795 44 0.999979C45.006 1.97798 47.017 1.97798 48.023 0.999979C49.029 0.0219795 51.04 0.0219795 52.045 0.999979C53.051 1.97798 55.062 1.97798 56.068 0.999979M39.932 0.999979C40.938 0.0219795 42.949 0.0219795 43.954 0.999979C44.96 1.97798 46.971 1.97798 47.977 0.999979C48.983 0.0219795 50.994 0.0219795 52 0.999979C53.006 1.97798 55.017 1.97798 56.023 0.999979C57.029 0.0219795 59.04 0.0219795 60.045 0.999979C61.051 1.97798 63.062 1.97798 64.068 0.999979M47.932 0.999979C48.938 0.0219795 50.949 0.0219795 51.954 0.999979C52.96 1.97798 54.971 1.97798 55.977 0.999979C56.983 0.0219795 58.994 0.0219795 60 0.999979C61.006 1.97798 63.017 1.97798 64.023 0.999979C65.029 0.0219795 67.04 0.0219795 68.045 0.999979C69.051 1.97798 71.062 1.97798 72.068 0.999979M55.932 0.999979C56.938 0.0219795 58.949 0.0219795 59.954 0.999979C60.96 1.97798 62.971 1.97798 63.977 0.999979C64.983 0.0219795 66.994 0.0219795 68 0.999979C69.006 1.97798 71.017 1.97798 72.023 0.999979C73.029 0.0219795 75.04 0.0219795 76.045 0.999979C77.051 1.97798 79.062 1.97798 80.068 0.999979M63.932 0.999979C64.938 0.0219795 66.949 0.0219795 67.954 0.999979C68.96 1.97798 70.971 1.97798 71.977 0.999979C72.983 0.0219795 74.994 0.0219795 76 0.999979C77.006 1.97798 79.017 1.97798 80.023 0.999979C81.029 0.0219795 83.04 0.0219795 84.045 0.999979C85.051 1.97798 87.062 1.97798 88.068 0.999979M71.932 0.999979C72.938 0.0219795 74.949 0.0219795 75.954 0.999979C76.96 1.97798 78.971 1.97798 79.977 0.999979C80.983 0.0219795 82.994 0.0219795 84 0.999979C85.006 1.97798 87.017 1.97798 88.023 0.999979C89.029 0.0219795 91.04 0.0219795 92.045 0.999979C93.051 1.97798 95.062 1.97798 96.068 0.999979M79.932 0.999979C80.938 0.0219795 82.949 0.0219795 83.954 0.999979C84.96 1.97798 86.971 1.97798 87.977 0.999979C88.983 0.0219795 90.994 0.0219795 92 0.999979C93.006 1.97798 95.017 1.97798 96.023 0.999979C97.029 0.0219795 99.04 0.0219795 100.045 0.999979C101.051 1.97798 103.062 1.97798 104.068 0.999979M87.932 0.999979C88.938 0.0219795 90.949 0.0219795 91.954 0.999979C92.96 1.97798 94.971 1.97798 95.977 0.999979C96.983 0.0219795 98.994 0.0219795 100 0.999979C101.006 1.97798 103.017 1.97798 104.023 0.999979C105.029 0.0219795 107.04 0.0219795 108.045 0.999979C109.051 1.97798 111.062 1.97798 112.068 0.999979M95.932 0.999979C96.938 0.0219795 98.949 0.0219795 99.954 0.999979C100.96 1.97798 102.971 1.97798 103.977 0.999979C104.983 0.0219795 106.994 0.0219795 108 0.999979C109.006 1.97798 111.017 1.97798 112.023 0.999979C113.029 0.0219795 115.04 0.0219795 116.045 0.999979C117.051 1.97798 119.062 1.97798 120.068 0.999979M103.932 0.999979C104.938 0.0219795 106.949 0.0219795 107.954 0.999979C108.96 1.97798 110.971 1.97798 111.977 0.999979C112.983 0.0219795 114.994 0.0219795 116 0.999979C117.006 1.97798 119.017 1.97798 120.023 0.999979C121.029 0.0219795 123.04 0.0219795 124.045 0.999979C125.051 1.97798 127.062 1.97798 128.068 0.999979M111.932 0.999979C112.938 0.0219795 114.949 0.0219795 115.954 0.999979C116.96 1.97798 118.971 1.97798 119.977 0.999979C120.983 0.0219795 122.994 0.0219795 124 0.999979C125.006 1.97798 127.017 1.97798 128.023 0.999979C129.029 0.0219795 131.04 0.0219795 132.045 0.999979C133.051 1.97798 135.062 1.97798 136.068 0.999979M119.932 0.999979C120.938 0.0219795 122.949 0.0219795 123.954 0.999979C124.96 1.97798 126.971 1.97798 127.977 0.999979C128.983 0.0219795 130.994 0.0219795 132 0.999979C133.006 1.97798 135.017 1.97798 136.023 0.999979C137.029 0.0219795 139.04 0.0219795 140.045 0.999979C141.051 1.97798 143.062 1.97798 144.068 0.999979M127.932 0.999979C128.938 0.0219795 130.949 0.0219795 131.954 0.999979C132.96 1.97798 134.971 1.97798 135.977 0.999979C136.983 0.0219795 138.994 0.0219795 140 0.999979C141.006 1.97798 143.017 1.97798 144.023 0.999979C145.029 0.0219795 147.04 0.0219795 148.045 0.999979C149.051 1.97798 151.062 1.97798 152.068 0.999979M135.932 0.999979C136.938 0.0219795 138.949 0.0219795 139.954 0.999979C140.96 1.97798 142.971 1.97798 143.977 0.999979C144.983 0.0219795 146.994 0.0219795 148 0.999979C149.006 1.97798 151.017 1.97798 152.023 0.999979C153.029 0.0219795 155.04 0.0219795 156.045 0.999979C157.051 1.97798 159.062 1.97798 160.068 0.999979M143.932 0.999979C144.938 0.0219795 146.949 0.0219795 147.954 0.999979C148.96 1.97798 150.971 1.97798 151.977 0.999979C152.983 0.0219795 154.994 0.0219795 156 0.999979C157.006 1.97798 159.017 1.97798 160.023 0.999979C161.029 0.0219795 163.04 0.0219795 164.045 0.999979C165.051 1.97798 167.062 1.97798 168.068 0.999979M151.932 0.999979C152.938 0.0219795 154.949 0.0219795 155.954 0.999979C156.96 1.97798 158.971 1.97798 159.977 0.999979C160.983 0.0219795 162.994 0.0219795 164 0.999979C165.006 1.97798 167.017 1.97798 168.023 0.999979C169.029 0.0219795 171.04 0.0219795 172.045 0.999979C173.051 1.97798 175.062 1.97798 176.068 0.999979M159.932 0.999979C160.938 0.0219795 162.949 0.0219795 163.954 0.999979C164.96 1.97798 166.971 1.97798 167.977 0.999979C168.983 0.0219795 170.994 0.0219795 172 0.999979C173.006 1.97798 175.017 1.97798 176.023 0.999979C177.029 0.0219795 179.04 0.0219795 180.045 0.999979C181.051 1.97798 183.062 1.97798 184.068 0.999979M167.932 0.999979C168.938 0.0219795 170.949 0.0219795 171.954 0.999979C172.96 1.97798 174.971 1.97798 175.977 0.999979C176.983 0.0219795 178.994 0.0219795 180 0.999979C181.006 1.97798 183.017 1.97798 184.023 0.999979C185.029 0.0219795 187.04 0.0219795 188.045 0.999979C189.051 1.97798 191.062 1.97798 192.068 0.999979M175.932 0.999979C176.938 0.0219795 178.949 0.0219795 179.954 0.999979C180.96 1.97798 182.971 1.97798 183.977 0.999979C184.983 0.0219795 186.994 0.0219795 188 0.999979C189.006 1.97798 191.017 1.97798 192.023 0.999979C193.029 0.0219795 195.04 0.0219795 196.045 0.999979C197.051 1.97798 199.062 1.97798 200.068 0.999979M183.932 0.999979C184.938 0.0219795 186.949 0.0219795 187.954 0.999979C188.96 1.97798 190.971 1.97798 191.977 0.999979C192.983 0.0219795 194.994 0.0219795 196 0.999979C197.006 1.97798 199.017 1.97798 200.023 0.999979C201.029 0.0219795 203.04 0.0219795 204.045 0.999979C205.051 1.97798 207.062 1.97798 208.068 0.999979M191.932 0.999979C192.938 0.0219795 194.949 0.0219795 195.954 0.999979C196.96 1.97798 198.971 1.97798 199.977 0.999979C200.983 0.0219795 202.994 0.0219795 204 0.999979C205.006 1.97798 207.017 1.97798 208.023 0.999979C209.029 0.0219795 211.04 0.0219795 212.045 0.999979C213.051 1.97798 215.062 1.97798 216.068 0.999979M199.932 0.999979C200.938 0.0219795 202.949 0.0219795 203.954 0.999979C204.96 1.97798 206.971 1.97798 207.977 0.999979C208.983 0.0219795 210.994 0.0219795 212 0.999979C213.006 1.97798 215.017 1.97798 216.023 0.999979C217.029 0.0219795 219.04 0.0219795 220.045 0.999979C221.051 1.97798 223.062 1.97798 224.068 0.999979M207.932 0.999979C208.938 0.0219795 210.949 0.0219795 211.954 0.999979C212.96 1.97798 214.971 1.97798 215.977 0.999979C216.983 0.0219795 218.994 0.0219795 220 0.999979C221.006 1.97798 223.017 1.97798 224.023 0.999979C225.029 0.0219795 227.04 0.0219795 228.045 0.999979C229.051 1.97798 231.062 1.97798 232.068 0.999979M215.932 0.999979C216.938 0.0219795 218.949 0.0219795 219.954 0.999979C220.96 1.97798 222.971 1.97798 223.977 0.999979C224.983 0.0219795 226.994 0.0219795 228 0.999979C229.006 1.97798 231.017 1.97798 232.023 0.999979C233.029 0.0219795 235.04 0.0219795 236.045 0.999979C237.051 1.97798 239.062 1.97798 240.068 0.999979M223.932 0.999979C224.938 0.0219795 226.949 0.0219795 227.954 0.999979C228.96 1.97798 230.971 1.97798 231.977 0.999979C232.983 0.0219795 234.994 0.0219795 236 0.999979C237.006 1.97798 239.017 1.97798 240.023 0.999979C241.029 0.0219795 243.04 0.0219795 244.045 0.999979C245.051 1.97798 247.062 1.97798 248.068 0.999979" stroke="#F2994A" stroke-width="0.75"/>
</g>
<defs>
<clipPath id="clip0">
<rect width="240" height="2" fill="white"/>
</clipPath>
</defs>
</svg>
