<svg width="14" height="14" viewBox="0 0 14 14" fill="none" xmlns="http://www.w3.org/2000/svg">
<path fill-rule="evenodd" clip-rule="evenodd" d="M11.0404 11.0405C10.6499 11.431 10.0168 11.431 9.62623 11.0405L7 8.41429L4.37377 11.0405C3.98325 11.431 3.35008 11.431 2.95956 11.0405C2.56903 10.65 2.56904 10.0168 2.95956 9.6263L5.58579 7.00008L2.95956 4.37386C2.56904 3.98333 2.56904 3.35017 2.95956 2.95964C3.35008 2.56912 3.98325 2.56912 4.37377 2.95964L7 5.58587L9.62623 2.95964C10.0168 2.56912 10.6499 2.56912 11.0404 2.95964C11.431 3.35017 11.431 3.98333 11.0404 4.37385L8.41422 7.00008L11.0404 9.62631C11.431 10.0168 11.431 10.65 11.0404 11.0405Z" fill="white"/>
</svg>
